<svg xmlns="http://www.w3.org/2000/svg" viewBox="0 0 500 210" font-family="Inter, sans-serif">
  <defs>
    <style>
      .axis { stroke: #2B2A26; stroke-width: 2; }
      .curve-train { stroke: #4F7A5C; stroke-width: 3; fill: none; }
      .curve-prod { stroke: #C96A45; stroke-width: 3; fill: none; }
      .mean-line { stroke: #7A756A; stroke-width: 1.5; stroke-dasharray: 4,3; }
      .drift-arrow { stroke: #4A6FA5; stroke-width: 2; fill: none; }
      .arrow-head { fill: #4A6FA5; }
      .text-title { fill: #2B2A26; font-size: 13px; font-weight: 700; text-anchor: middle; }
      .text-label { fill: #2B2A26; font-size: 10px; font-weight: 600; text-anchor: middle; }
      .text-sub { fill: #7A756A; font-size: 10px; text-anchor: middle; }
    </style>
    <marker id="arr" markerWidth="8" markerHeight="6" refX="7" refY="3" orient="auto">
      <polygon class="arrow-head" points="0 0, 8 3, 0 6"/>
    </marker>
  </defs>

  <text class="text-title" x="250" y="20">Data Drift Detection (Distribution Shift)</text>

  <circle cx="80" cy="40" r="5" fill="#4F7A5C"/>
  <text class="text-label" style="text-anchor: start;" x="90" y="44">Training Data (Baseline)</text>

  <circle cx="320" cy="40" r="5" fill="#C96A45"/>
  <text class="text-label" style="text-anchor: start;" x="330" y="44">Production Data (Shifted)</text>

  <line class="axis" x1="30" y1="160" x2="470" y2="160"/>

  <path class="curve-train" d="M 50,160 C 110,160 120,60 170,60 C 220,60 230,160 290,160"/>
  <path class="curve-prod" d="M 150,160 C 210,160 230,90 290,90 C 350,90 370,160 430,160"/>

  <line class="mean-line" x1="170" y1="60" x2="170" y2="160"/>
  <text class="text-sub" x="170" y="175">Mean = 50</text>
  <text class="text-sub" x="170" y="187">(Std = 10)</text>

  <line class="mean-line" x1="290" y1="90" x2="290" y2="160"/>
  <text class="text-sub" x="290" y="175">Mean = 55</text>
  <text class="text-sub" x="290" y="187">(Std = 15)</text>

  <path class="drift-arrow" d="M 180,75 Q 235,70 280,85" marker-end="url(#arr)"/>
  <text class="text-label" style="fill: #4A6FA5;" x="235" y="65">Data Drift</text>
</svg>