<svg xmlns="http://www.w3.org/2000/svg" viewBox="0 0 500 200" font-family="Inter, sans-serif">
  <defs>
    <style>
      .box { fill: #F1E0D6; stroke: #C96A45; stroke-width: 2; rx: 8; }
      .box-green { fill: #4F7A5C; stroke: #2D5A3A; stroke-width: 2; rx: 8; }
      .text { fill: #2B2A26; font-size: 11px; font-weight: 600; text-anchor: middle; }
      .text-white { fill: #fff; font-size: 11px; font-weight: 600; text-anchor: middle; }
      .line { stroke: #C96A45; stroke-width: 2; fill: none; }
      .arrow { fill: #C96A45; }
    </style>
    <marker id="ak" markerWidth="10" markerHeight="7" refX="9" refY="3.5" orient="auto">
      <polygon class="arrow" points="0 0, 10 3.5, 0 7"/>
    </marker>
  </defs>
  
  <!-- Step 1 -->
  <rect class="box" x="10" y="60" width="100" height="80"/>
  <text class="text" x="60" y="85">Step 1</text>
  <text class="text" x="60" y="100">Initialize</text>
  <text class="text" x="60" y="115">K=3 centroids</text>
  
  <line class="line" x1="110" y1="100" x2="135" y2="100" marker-end="url(#ak)"/>
  
  <!-- Step 2 -->
  <rect class="box" x="140" y="60" width="100" height="80"/>
  <text class="text" x="190" y="85">Step 2</text>
  <text class="text" x="190" y="100">Assign points</text>
  <text class="text" x="190" y="115">to nearest</text>
  
  <line class="line" x1="240" y1="100" x2="265" y2="100" marker-end="url(#ak)"/>
  
  <!-- Step 3 -->
  <rect class="box" x="270" y="60" width="100" height="80"/>
  <text class="text" x="320" y="85">Step 3</text>
  <text class="text" x="320" y="100">Update</text>
  <text class="text" x="320" y="115">centroids</text>
  
  <line class="line" x1="370" y1="100" x2="395" y2="100" marker-end="url(#ak)"/>
  
  <!-- Step 4 -->
  <rect class="box" x="400" y="60" width="90" height="80"/>
  <text class="text" x="445" y="85">Step 4</text>
  <text class="text" x="445" y="100">Converged?</text>
  
  <!-- Loop back -->
  <path class="line" d="M 445 60 L 445 30 L 190 30 L 190 60" marker-end="url(#ak)" stroke-dasharray="5,3"/>
  <text class="text" x="320" y="25" font-size="9" fill="#7A756A">Repeat until converged</text>
  
  <!-- Result -->
  <rect class="box-green" x="175" y="160" width="150" height="35"/>
  <text class="text-white" x="250" y="182">Final Clusters</text>
</svg>
