<svg xmlns="http://www.w3.org/2000/svg" viewBox="0 0 500 260" font-family="Inter, sans-serif">
  <defs>
    <style>
      .box { fill: #F1E0D6; stroke: #C96A45; stroke-width: 2; }
      .box-blue { fill: #4A6FA5; stroke: #2D4A7A; stroke-width: 2; }
      .text { fill: #2B2A26; font-size: 12px; font-weight: 600; text-anchor: middle; }
      .text-white { fill: #fff; font-size: 12px; font-weight: 600; text-anchor: middle; }
      .line { stroke: #C96A45; stroke-width: 2; fill: none; }
      .arrow { fill: #C96A45; }
    </style>
    <marker id="ar" markerWidth="10" markerHeight="7" refX="9" refY="3.5" orient="auto">
      <polygon class="arrow" points="0 0, 10 3.5, 0 7"/>
    </marker>
  </defs>

  <rect class="box-blue" x="200" y="10" width="100" height="40" rx="8"/>
  <text class="text-white" x="250" y="35">New Point ?</text>

  <line class="line" x1="250" y1="50" x2="250" y2="80"/>

  <rect class="box" x="150" y="80" width="200" height="35" rx="8"/>
  <text class="text" x="250" y="102">Find 3 Nearest Neighbors</text>

  <line class="line" x1="250" y1="115" x2="100" y2="145"/>
  <line class="line" x1="250" y1="115" x2="250" y2="145"/>
  <line class="line" x1="250" y1="115" x2="400" y2="145"/>

  <rect class="box" x="30" y="145" width="140" height="35" rx="8"/>
  <text class="text" x="100" y="167">Neighbor 1: Class A</text>

  <rect class="box" x="180" y="145" width="140" height="35" rx="8"/>
  <text class="text" x="250" y="167">Neighbor 2: Class A</text>

  <rect class="box" x="330" y="145" width="140" height="35" rx="8"/>
  <text class="text" x="400" y="167">Neighbor 3: Class B</text>

  <line class="line" x1="100" y1="180" x2="250" y2="210"/>
  <line class="line" x1="250" y1="180" x2="250" y2="210"/>
  <line class="line" x1="400" y1="180" x2="250" y2="210"/>

  <rect class="box" x="175" y="210" width="150" height="35" rx="8"/>
  <text class="text" x="250" y="232">Predict: Class A</text>
</svg>
