<svg xmlns="http://www.w3.org/2000/svg" viewBox="0 0 600 300" font-family="Inter, sans-serif">
  <defs>
    <style>
      .box { fill: #F1E0D6; stroke: #C96A45; stroke-width: 2; rx: 8; }
      .box-green { fill: #4F7A5C; stroke: #2D5A3A; stroke-width: 2; rx: 8; }
      .text { fill: #2B2A26; font-size: 12px; font-weight: 600; text-anchor: middle; }
      .text-white { fill: #fff; font-size: 12px; font-weight: 600; text-anchor: middle; }
      .line { stroke: #C96A45; stroke-width: 2; fill: none; }
      .arrow { fill: #C96A45; }
    </style>
    <marker id="a" markerWidth="10" markerHeight="7" refX="9" refY="3.5" orient="auto">
      <polygon class="arrow" points="0 0, 10 3.5, 0 7"/>
    </marker>
  </defs>
  
  <!-- Original Dataset -->
  <rect class="box" x="200" y="10" width="200" height="40"/>
  <text class="text" x="300" y="35">Original Dataset (1000)</text>
  
  <!-- Lines down -->
  <line class="line" x1="300" y1="50" x2="100" y2="90"/>
  <line class="line" x1="300" y1="50" x2="300" y2="90"/>
  <line class="line" x1="300" y1="50" x2="500" y2="90"/>
  
  <!-- Bootstrap samples -->
  <rect class="box" x="20" y="90" width="160" height="40"/>
  <text class="text" x="100" y="115">Bootstrap 1 (700)</text>
  
  <rect class="box" x="220" y="90" width="160" height="40"/>
  <text class="text" x="300" y="115">Bootstrap 2 (700)</text>
  
  <rect class="box" x="420" y="90" width="160" height="40"/>
  <text class="text" x="500" y="115">Bootstrap 3 (700)</text>
  
  <!-- Lines to trees -->
  <line class="line" x1="100" y1="130" x2="100" y2="160"/>
  <line class="line" x1="300" y1="130" x2="300" y2="160"/>
  <line class="line" x1="500" y1="130" x2="500" y2="160"/>
  
  <!-- Trees -->
  <rect class="box" x="40" y="160" width="120" height="40"/>
  <text class="text" x="100" y="185">Tree 1 → Pred: A</text>
  
  <rect class="box" x="240" y="160" width="120" height="40"/>
  <text class="text" x="300" y="185">Tree 2 → Pred: B</text>
  
  <rect class="box" x="440" y="160" width="120" height="40"/>
  <text class="text" x="500" y="185">Tree 3 → Pred: A</text>
  
  <!-- Lines to vote -->
  <line class="line" x1="100" y1="200" x2="300" y2="240"/>
  <line class="line" x1="300" y1="200" x2="300" y2="240"/>
  <line class="line" x1="500" y1="200" x2="300" y2="240"/>
  
  <!-- Majority Vote -->
  <rect class="box-green" x="200" y="240" width="200" height="45"/>
  <text class="text-white" x="300" y="260">Majority Vote</text>
  <text class="text-white" x="300" y="275" font-size="11">Final: A wins!</text>
</svg>
